<?xml version="1.0" standalone="no"?>
<!DOCTYPE svg PUBLIC "-//W3C//DTD SVG 20010904//EN"
 "http://www.w3.org/TR/2001/REC-SVG-20010904/DTD/svg10.dtd">
<svg version="1.0" xmlns="http://www.w3.org/2000/svg"
 width="1024.000000pt" height="1024.000000pt" viewBox="0 0 1024.000000 1024.000000"
 preserveAspectRatio="xMidYMid meet">

<g transform="translate(0.000000,1024.000000) scale(0.100000,-0.100000)"
fill="#000000" stroke="none">
<path d="M5075 8574 c-93 -66 -284 -175 -408 -234 -379 -180 -837 -295 -1433
-361 l-112 -12 -21 -121 c-116 -671 -117 -1422 -2 -1891 163 -662 515 -1117
1176 -1515 219 -133 541 -291 782 -385 l71 -27 74 27 c354 133 734 331 1020
532 588 413 899 937 1004 1693 21 157 30 673 15 896 -19 272 -81 766 -100 786
-3 3 -69 14 -146 23 -425 48 -755 117 -1061 220 -270 91 -446 177 -673 330
-62 41 -117 75 -124 74 -7 0 -34 -16 -62 -35z m79 -213 c9 -13 247 -152 351
-204 351 -175 800 -294 1296 -343 l177 -18 16 -126 c67 -513 82 -933 46 -1275
-96 -909 -524 -1483 -1457 -1949 -122 -61 -343 -158 -425 -187 -35 -12 -42
-10 -140 31 -348 147 -739 370 -993 567 -454 353 -706 820 -791 1468 -43 333
-23 936 47 1396 l12 76 86 7 c538 43 1025 167 1411 361 123 61 325 180 335
195 8 12 22 13 29 1z"/>
<path d="M3649 7343 c-7 -18 -7 -43 -2 -68 8 -40 9 -40 61 -45 39 -4 59 -12
80 -33 l27 -27 3 -555 c3 -663 11 -620 -118 -627 -41 -3 -45 -6 -54 -35 -5
-21 -5 -45 0 -65 l10 -33 309 0 310 0 0 65 0 65 -52 5 c-37 4 -60 13 -75 28
-22 22 -23 31 -27 222 -4 224 -9 203 79 280 l58 50 115 -177 c63 -98 155 -243
206 -323 104 -165 139 -206 184 -218 34 -9 371 -1 382 9 3 4 8 23 12 43 8 52
-17 86 -63 86 -87 0 -135 47 -299 291 -60 90 -161 238 -224 328 l-114 164 74
71 c165 158 356 334 387 357 23 16 52 26 90 29 56 5 57 5 67 43 7 30 5 45 -6
65 l-15 27 -243 3 c-171 2 -248 -1 -257 -9 -14 -12 -19 -84 -8 -113 4 -9 18
-16 34 -16 41 0 60 -10 60 -30 0 -9 -44 -66 -99 -126 -107 -118 -403 -414
-414 -414 -11 0 -8 439 3 485 11 51 50 85 95 85 39 0 55 20 55 70 0 17 -5 40
-10 51 -10 18 -24 19 -311 19 l-299 0 -11 -27z"/>
<path d="M5327 7363 c-9 -8 -9 -96 -1 -117 4 -10 18 -16 41 -16 49 0 89 -24
102 -61 7 -22 11 -202 11 -571 0 -635 5 -608 -104 -608 -53 0 -66 -13 -66 -65
0 -82 -27 -77 445 -73 399 4 424 6 505 27 160 43 245 106 299 220 23 50 26 68
26 171 0 102 -3 121 -25 165 -13 27 -43 68 -66 91 -42 40 -160 104 -219 118
-29 7 -27 9 45 46 143 75 205 177 198 325 -7 137 -75 237 -201 295 -116 55
-170 60 -596 60 -213 0 -391 -3 -394 -7z m748 -157 c97 -42 141 -128 133 -260
-5 -76 -29 -135 -70 -173 -42 -40 -101 -53 -234 -53 l-124 0 0 256 0 256 128
-4 c90 -3 139 -10 167 -22z m-14 -656 c126 -24 197 -109 206 -248 10 -141 -34
-234 -135 -283 -42 -21 -61 -23 -180 -24 -185 0 -172 -24 -172 306 l0 259 114
0 c62 0 138 -5 167 -10z"/>
<path d="M2549 7943 c-242 -176 -354 -427 -319 -716 10 -87 9 -99 -10 -158
-12 -35 -30 -100 -40 -144 l-17 -80 -8 50 c-10 64 -44 160 -79 219 -49 84
-224 252 -242 233 -16 -16 -36 -128 -41 -228 -7 -146 11 -235 72 -358 48 -94
136 -200 211 -252 l44 -30 0 -112 c1 -62 5 -157 10 -212 5 -55 7 -101 6 -102
-2 -2 -22 36 -46 84 -61 124 -159 221 -290 286 -52 26 -105 47 -118 47 -20 0
-22 -5 -22 -49 0 -63 22 -180 49 -255 31 -90 78 -162 163 -251 85 -89 159
-139 256 -172 l65 -21 19 -74 c24 -95 65 -219 95 -287 13 -30 22 -56 20 -57
-2 -2 -24 21 -50 52 -113 134 -250 211 -447 248 -43 9 -79 11 -84 6 -14 -14
11 -98 61 -200 38 -77 62 -110 128 -176 121 -122 241 -174 433 -189 l90 -7 75
-117 c42 -64 107 -155 145 -202 l70 -85 -66 43 c-123 80 -289 133 -419 133
-66 0 -184 -17 -196 -29 -16 -16 131 -186 226 -259 66 -52 154 -95 237 -118
91 -25 292 -25 376 0 l61 18 84 -68 c113 -91 231 -167 371 -239 114 -59 117
-59 136 -41 28 25 44 72 29 84 -7 6 -55 30 -107 54 -52 25 -133 68 -180 97
-95 59 -253 180 -248 189 2 4 20 40 41 79 86 168 91 368 11 543 -37 80 -97
170 -114 170 -22 0 -78 -87 -107 -166 -21 -55 -27 -93 -31 -185 -5 -130 7
-188 60 -292 16 -32 28 -60 26 -62 -5 -5 -175 187 -226 255 -27 36 -72 102
-100 146 l-50 81 73 75 c120 122 185 280 185 449 0 77 -21 198 -44 253 l-16
38 -30 -22 c-44 -31 -119 -119 -163 -192 -62 -103 -82 -182 -82 -330 0 -71 -1
-128 -2 -128 0 0 -23 53 -51 118 -52 123 -116 312 -126 372 -6 34 -5 36 46 60
34 16 87 58 144 115 144 143 194 265 194 477 0 100 -2 118 -16 118 -33 0 -129
-57 -192 -114 -110 -102 -167 -207 -202 -376 -15 -76 -18 -81 -23 -50 -19 104
-30 243 -31 389 l-1 165 96 36 c127 48 183 82 252 153 95 98 186 309 187 431
0 27 -1 28 -37 21 -53 -10 -165 -59 -216 -94 -86 -60 -180 -181 -238 -305 -18
-39 -28 -53 -29 -39 0 41 31 247 51 335 18 78 24 89 57 114 159 120 268 279
308 452 12 51 15 100 11 202 -5 136 -18 200 -42 200 -7 0 -41 -21 -76 -47z"/>
<path d="M7620 7965 c-21 -55 -32 -163 -28 -260 6 -115 43 -237 99 -331 42
-69 143 -181 208 -228 46 -34 50 -40 69 -118 18 -72 42 -216 55 -325 4 -41 -9
-44 -18 -4 -10 47 -91 176 -152 242 -88 95 -206 164 -316 184 -35 7 -37 6 -37
-19 0 -61 35 -177 81 -274 82 -170 198 -266 396 -328 l63 -19 0 -110 c0 -124
-13 -296 -31 -418 l-12 -82 -13 87 c-24 159 -86 281 -195 383 -56 52 -176 125
-207 125 -19 0 -23 -56 -13 -159 26 -246 134 -423 328 -537 64 -37 65 -38 59
-74 -8 -54 -83 -271 -132 -385 l-43 -100 -1 100 c-1 130 -20 221 -70 322 -40
81 -121 181 -181 224 l-28 20 -15 -29 c-8 -16 -22 -69 -32 -118 -42 -225 21
-433 183 -605 l64 -67 -70 -104 c-38 -56 -94 -133 -123 -169 -62 -77 -188
-214 -188 -205 0 4 12 30 27 59 39 78 53 142 53 253 0 121 -25 230 -73 317
-45 82 -60 90 -92 52 -39 -48 -103 -184 -120 -255 -19 -83 -19 -237 0 -318 8
-34 31 -95 51 -134 l36 -72 -38 -34 c-75 -65 -261 -182 -379 -238 -66 -31
-121 -58 -123 -59 -7 -6 43 -95 52 -95 6 0 61 24 121 54 126 61 288 166 391
253 52 44 75 58 86 52 37 -21 205 -41 288 -35 110 8 176 26 280 77 69 35 102
60 181 138 111 111 156 168 143 181 -5 5 -38 14 -74 19 -203 33 -409 -21 -599
-156 -13 -10 14 30 60 87 47 58 114 151 149 207 l65 101 90 7 c112 9 178 26
258 66 157 80 265 205 337 391 38 98 38 108 -1 108 -48 0 -165 -30 -240 -60
-98 -41 -168 -91 -251 -178 -39 -42 -68 -68 -63 -57 38 93 90 244 110 318 13
49 26 90 27 91 2 1 28 10 58 19 171 52 340 216 415 404 31 76 55 197 55 273 0
71 5 70 -108 19 -146 -66 -257 -170 -324 -305 -23 -46 -42 -83 -43 -82 -2 2 1
44 6 93 4 50 8 144 9 210 l1 120 50 34 c125 85 242 263 274 416 25 121 11 337
-26 407 -12 23 -27 16 -108 -52 -111 -92 -190 -230 -216 -375 -11 -60 -13 -66
-19 -40 -3 17 -21 80 -38 140 -30 105 -32 117 -29 265 3 193 -11 270 -75 400
-39 78 -62 110 -128 175 -74 74 -166 145 -188 145 -5 0 -13 -11 -18 -25z"/>
<path d="M5630 3671 c-63 -33 -579 -129 -621 -116 -11 4 -27 1 -35 -6 -14 -11
-15 -53 -8 -346 l7 -333 -37 0 c-62 0 -75 -12 -65 -62 4 -24 17 -68 27 -98 18
-50 22 -55 48 -54 24 1 471 149 483 159 5 6 -41 95 -56 107 -9 7 -36 6 -95 -5
-46 -8 -86 -13 -90 -11 -5 3 -8 50 -8 106 0 87 2 99 16 94 9 -3 57 -6 107 -6
l92 0 20 -67 c43 -154 130 -280 233 -340 l46 -27 -34 -14 c-31 -13 -184 -13
-595 0 l-80 3 -3 -402 -2 -402 42 -12 c39 -10 117 -6 153 7 10 4 15 20 15 45
l0 39 205 0 204 0 7 -36 c5 -26 14 -38 33 -46 26 -10 152 -5 171 7 6 4 10 122
10 322 l0 315 25 30 c14 16 25 36 25 44 0 8 -20 27 -45 43 l-45 28 45 6 c70
10 100 30 123 84 27 64 49 170 37 182 -6 5 -37 23 -69 40 -67 35 -76 32 -94
-28 -17 -56 -34 -67 -71 -45 -44 26 -113 128 -135 202 l-7 22 143 0 c79 0 148
4 154 8 20 14 44 57 44 79 0 22 -68 84 -138 125 -29 17 -31 17 -66 -7 -30 -21
-49 -25 -105 -25 l-69 0 -7 76 c-4 41 -5 77 -3 79 1 1 66 12 142 23 139 20
166 31 166 68 0 31 -154 165 -189 164 -9 -1 -32 -9 -51 -19z m-276 -273 c0 -4
3 -32 6 -63 l6 -55 -70 0 c-111 0 -116 3 -116 65 0 43 4 55 18 58 26 8 157 3
156 -5z m246 -978 l0 -70 -202 2 -203 3 -3 68 -3 67 206 0 205 0 0 -70z m0
-285 l0 -65 -205 0 -205 0 0 65 0 65 205 0 205 0 0 -65z"/>
<path d="M6785 3663 c-38 -2 -74 -8 -81 -14 -8 -6 -10 -37 -6 -99 l5 -90 -196
0 -197 0 -6 -26 c-9 -34 1 -111 16 -129 11 -13 77 -15 481 -15 l468 0 19 28
c42 59 40 65 -48 131 -84 63 -97 66 -130 27 -9 -12 -33 -16 -96 -16 l-84 0 0
85 c0 72 -3 88 -20 105 -11 11 -28 19 -37 18 -10 -1 -49 -4 -88 -5z"/>
<path d="M2274 3633 c-23 -105 -81 -293 -94 -307 -4 -4 -25 4 -46 18 -21 14
-44 26 -51 26 -10 0 -48 -43 -66 -76 -3 -6 25 -53 63 -105 38 -52 89 -127 112
-166 41 -70 59 -85 73 -63 3 6 10 10 15 10 5 0 -10 -34 -33 -75 l-42 -75 -97
0 -98 0 0 -48 c0 -62 26 -149 48 -161 11 -6 54 -1 130 16 63 13 115 23 116 21
2 -2 -1 -180 -5 -397 -6 -280 -5 -399 3 -408 13 -16 124 -18 164 -3 l27 11 -5
419 -5 420 23 6 c13 3 38 7 55 7 32 2 32 1 47 -63 7 -36 18 -69 22 -74 12 -12
113 48 150 90 23 26 29 41 24 57 -11 38 -90 139 -162 211 l-70 68 -38 -35 -39
-36 24 -42 c30 -54 23 -59 -99 -59 l-95 0 114 117 c169 175 271 301 271 334 0
43 -120 149 -154 136 -8 -3 -52 -69 -98 -147 -45 -77 -86 -139 -89 -138 -3 2
-29 30 -57 64 l-50 61 110 134 c60 74 117 149 126 166 14 30 14 34 -3 53 -21
23 -131 60 -181 60 -29 0 -35 -4 -40 -27z"/>
<path d="M3158 3649 c-16 -9 -18 -26 -18 -124 l0 -115 -189 0 -189 0 -6 -25
c-7 -28 2 -101 16 -127 8 -16 27 -18 187 -18 l179 0 5 -32 c2 -18 5 -81 6
-140 l2 -108 -173 -2 -173 -3 -3 -55 c-1 -30 3 -66 10 -78 l13 -24 468 -3 468
-2 23 31 c42 56 41 60 -37 118 -40 30 -77 57 -83 61 -6 3 -26 -5 -44 -18 -31
-23 -43 -25 -131 -25 l-96 0 -7 38 c-3 20 -6 83 -6 139 l0 103 227 2 228 3 23
42 23 42 -87 65 c-48 36 -92 66 -97 66 -6 0 -25 -11 -43 -25 -31 -23 -40 -25
-154 -25 l-122 0 4 63 c3 34 11 76 18 93 12 28 11 35 -3 58 -17 25 -22 26
-106 26 -49 0 -95 2 -103 5 -7 2 -21 0 -30 -6z"/>
<path d="M4377 3653 c-3 -5 -8 -42 -11 -83 -9 -93 -25 -226 -32 -262 l-6 -28
-89 0 c-86 0 -89 -1 -95 -25 -8 -31 4 -115 18 -132 7 -8 36 -13 80 -13 l69 0
-6 -37 c-17 -104 -70 -362 -96 -468 -34 -139 -35 -157 -11 -178 26 -23 122
-58 142 -52 10 3 25 24 34 45 9 22 20 40 24 40 16 0 102 -71 102 -83 0 -18
-93 -178 -142 -246 -23 -31 -77 -91 -120 -133 -88 -85 -91 -97 -37 -137 41
-30 56 -25 161 54 99 74 177 162 239 266 l42 70 34 -33 c19 -18 51 -54 71 -80
37 -49 69 -61 89 -35 6 6 27 50 48 96 31 69 35 87 26 107 -9 20 -62 65 -149
124 l-21 15 33 100 c34 99 59 213 91 415 10 58 21 125 27 150 16 74 19 114 11
126 -14 20 -148 104 -165 104 -9 0 -27 -14 -40 -30 -23 -30 -27 -31 -89 -28
l-65 3 21 110 c12 61 29 124 38 142 13 23 14 38 8 57 -11 27 -16 29 -119 51
-82 17 -109 19 -115 8z m293 -556 c0 -7 -9 -76 -19 -153 -17 -119 -29 -182
-68 -351 -3 -13 -10 -23 -15 -23 -13 0 -116 58 -123 70 -3 4 1 37 9 72 13 53
34 179 62 361 l6 37 74 0 c54 0 74 -3 74 -13z"/>
<path d="M7882 3628 c-9 -9 -79 -14 -250 -18 l-237 -5 -3 -865 c-1 -476 0
-875 3 -887 4 -18 14 -22 70 -28 71 -8 106 -3 128 20 13 12 14 41 10 172 l-6
158 22 -20 c13 -11 39 -48 58 -84 l36 -64 77 6 c187 12 291 123 307 326 14
188 -40 318 -220 524 l-47 54 44 84 c25 46 74 152 110 234 36 83 77 171 91
198 41 77 37 85 -79 166 -61 42 -93 50 -114 29z m-52 -207 c0 -26 -52 -201
-112 -377 l-52 -151 56 -74 c116 -154 153 -254 146 -395 -5 -88 -23 -132 -69
-167 -31 -22 -106 -26 -163 -7 l-36 12 0 461 c0 254 -3 519 -7 590 l-6 127
121 0 c113 0 122 -1 122 -19z"/>
<path d="M6472 3260 c-44 -27 -48 -44 -23 -98 16 -35 81 -243 81 -259 0 -1
-55 -4 -122 -5 l-123 -3 -3 -62 c-5 -113 -57 -103 527 -103 562 0 520 -5 549
64 16 36 5 49 -90 112 -70 47 -85 48 -118 10 -9 -12 -31 -16 -76 -16 l-64 0
101 117 c125 146 126 152 19 206 -80 40 -136 55 -150 41 -5 -5 -25 -63 -44
-129 -19 -66 -44 -146 -56 -177 l-21 -58 -152 0 -152 1 103 40 c56 22 102 46
102 52 0 51 -195 287 -237 287 -10 0 -33 -9 -51 -20z"/>
<path d="M3528 2635 c-36 -25 -40 -25 -233 -25 -150 0 -201 3 -218 14 -30 19
-169 31 -196 16 -21 -11 -21 -16 -21 -400 0 -290 3 -391 12 -396 6 -4 46 -10
88 -12 99 -6 120 5 120 58 l0 40 204 0 205 0 8 -42 c7 -37 13 -43 43 -51 47
-12 160 -3 171 14 5 8 9 146 9 308 l0 293 30 35 c17 18 30 40 30 49 0 19 -161
124 -192 124 -13 0 -40 -11 -60 -25z m-38 -360 l0 -175 -200 0 -200 0 0 175 0
175 200 0 200 0 0 -175z"/>
<path d="M7028 2625 c-36 -24 -41 -25 -221 -25 -144 0 -191 3 -213 15 -34 17
-155 20 -185 5 -18 -10 -19 -25 -19 -368 0 -265 3 -361 12 -370 13 -13 163
-17 192 -6 11 4 16 19 16 50 l0 44 190 0 190 0 0 -29 c0 -16 7 -34 15 -41 21
-18 167 -19 189 -1 14 12 16 46 16 288 l0 274 25 33 c14 18 25 38 25 43 0 15
-153 113 -176 113 -11 0 -36 -11 -56 -25z m-38 -340 l0 -155 -190 0 -190 0 0
155 0 155 190 0 190 0 0 -155z"/>
<path d="M2530 2542 l-22 -18 25 -59 c39 -96 58 -160 76 -263 21 -117 27 -120
121 -64 85 52 91 70 52 149 -53 103 -190 273 -222 273 -4 0 -18 -8 -30 -18z"/>
<path d="M2095 2510 c-3 -5 -10 -47 -15 -94 -13 -114 -35 -223 -65 -329 -29
-101 -27 -110 37 -129 49 -14 51 -12 106 108 45 99 83 222 106 340 13 72 13
77 -5 95 -15 15 -34 19 -88 19 -39 0 -73 -4 -76 -10z"/>
</g>
</svg>
